<?xml version="1.0" encoding="utf-8"?>
<!-- Generator: Adobe Illustrator 18.0.0, SVG Export Plug-In . SVG Version: 6.00 Build 0)  -->
<!DOCTYPE svg PUBLIC "-//W3C//DTD SVG 1.1//EN" "http://www.w3.org/Graphics/SVG/1.1/DTD/svg11.dtd">
<svg version="1.1" id="Layer_1" xmlns="http://www.w3.org/2000/svg" xmlns:xlink="http://www.w3.org/1999/xlink" x="0px" y="0px"
	 viewBox="0 269.1 1920 539.8" enable-background="new 0 269.1 1920 539.8" xml:space="preserve">
<path fill="#3B5998" d="M1900,809.1H18c-11,0-20-9-20-20v-500c0-11,9-20,20-20h1882c11,0,20,9,20,20v500
	C1920,800.1,1911,809.1,1900,809.1z"/>
<path fill="#3B5998" d="M1651.1,808.9H268.9C121,808.9,0,687.9,0,540l0,0c0-147.9,121-268.9,268.9-268.9h1382.2
	c147.9,0,268.9,121,268.9,268.9l0,0C1920,687.9,1799,808.9,1651.1,808.9z"/>
<rect x="584.9" y="271.1" fill="#244488" width="12.1" height="537.8"/>
<g>
	<path fill="#FFFFFF" d="M899.2,539.8h-51.4v54h-16.1V471.4h75.8v13.2h-59.7v41.9h51.3L899.2,539.8L899.2,539.8z"/>
	<path fill="#FFFFFF" d="M977.7,593.8c-0.9-1.8-1.6-5-2.2-9.6c-7.2,7.5-15.9,11.3-25.9,11.3c-9,0-16.3-2.5-22.1-7.6
		c-5.7-5.1-8.6-11.5-8.6-19.3c0-9.5,3.6-16.8,10.8-22.1c7.2-5.2,17.3-7.9,30.4-7.9h15.1v-7.1c0-5.4-1.6-9.8-4.9-13
		c-3.2-3.2-8-4.8-14.4-4.8c-5.6,0-10.2,1.4-14,4.2s-5.6,6.2-5.6,10.2h-15.6c0-4.5,1.6-8.9,4.8-13.2c3.2-4.2,7.6-7.6,13.1-10
		c5.5-2.5,11.6-3.7,18.2-3.7c10.5,0,18.7,2.6,24.6,7.9c5.9,5.2,9,12.5,9.2,21.6v41.9c0,8.3,1.1,15,3.2,19.9v1.3L977.7,593.8
		L977.7,593.8z M951.8,581.9c4.9,0,9.5-1.3,13.9-3.8s7.5-5.8,9.5-9.8v-18.7H963c-19,0-28.6,5.6-28.6,16.7c0,4.9,1.6,8.7,4.9,11.4
		C942.6,580.6,946.7,581.9,951.8,581.9z"/>
	<path fill="#FFFFFF" d="M1051.6,582.8c5.6,0,10.4-1.7,14.5-5c4.1-3.4,6.4-7.6,6.9-12.6h14.7c-0.3,5.2-2.1,10.2-5.4,14.9
		s-7.7,8.5-13.2,11.3s-11.4,4.2-17.5,4.2c-12.4,0-22.2-4.1-29.5-12.4c-7.3-8.3-11-19.6-11-33.9v-2.6c0-8.9,1.6-16.7,4.9-23.6
		c3.2-6.9,7.9-12.2,14-16s13.3-5.7,21.6-5.7c10.2,0,18.7,3.1,25.4,9.2c6.7,6.1,10.3,14,10.8,23.8H1073c-0.5-5.9-2.7-10.7-6.7-14.5
		s-8.9-5.7-14.8-5.7c-7.9,0-14,2.9-18.4,8.5c-4.3,5.7-6.5,13.9-6.5,24.7v2.9c0,10.5,2.2,18.5,6.5,24.2
		C1037.4,579.9,1043.6,582.8,1051.6,582.8z"/>
	<path fill="#FFFFFF" d="M1142.9,595.5c-12.3,0-22.4-4-30.1-12.1s-11.6-18.9-11.6-32.5V548c0-9,1.7-17.1,5.2-24.2
		c3.4-7.1,8.3-12.6,14.5-16.6s12.9-6,20.1-6c11.8,0,21,3.9,27.6,11.7s9.8,18.9,9.8,33.4v6.5h-61.6c0.2,9,2.8,16.2,7.9,21.7
		s11.4,8.3,19.1,8.3c5.5,0,10.1-1.1,14-3.4c3.8-2.2,7.1-5.2,10-8.9l9.5,7.4C1169.6,589.6,1158.2,595.5,1142.9,595.5z M1141,513.9
		c-6.3,0-11.5,2.3-15.8,6.9s-6.9,11-7.9,19.2h45.5v-1.2c-0.5-7.9-2.6-14-6.4-18.4C1152.7,516.1,1147.5,513.9,1141,513.9z"/>
	<path fill="#FFFFFF" d="M1273.4,549.3c0,13.9-3.2,25.1-9.6,33.5s-15,12.6-25.7,12.6c-11.5,0-20.4-4.1-26.6-12.2l-0.7,10.5h-14.3
		v-129h15.5v48.2c6.3-7.8,14.9-11.7,26-11.7c11,0,19.7,4.2,26,12.5s9.5,19.8,9.5,34.3v1.3H1273.4z M1257.8,547.6
		c0-10.6-2-18.8-6.1-24.5c-4.1-5.8-10-8.7-17.7-8.7c-10.3,0-17.6,4.8-22.1,14.3V568c4.8,9.5,12.2,14.3,22.3,14.3
		c7.4,0,13.2-2.9,17.4-8.7C1255.7,567.8,1257.8,559.2,1257.8,547.6z"/>
	<path fill="#FFFFFF" d="M1288.8,547.5c0-8.9,1.8-16.9,5.2-24c3.5-7.1,8.4-12.6,14.6-16.5s13.4-5.8,21.4-5.8
		c12.4,0,22.4,4.3,30,12.9s11.5,20,11.5,34.2v1.1c0,8.9-1.7,16.8-5.1,23.8s-8.2,12.5-14.5,16.4s-13.5,5.9-21.7,5.9
		c-12.3,0-22.3-4.3-30-12.9c-7.6-8.6-11.5-19.9-11.5-34L1288.8,547.5L1288.8,547.5z M1304.4,549.3c0,10.1,2.3,18.2,7,24.3
		s10.9,9.2,18.8,9.2s14.2-3.1,18.8-9.3c4.6-6.2,7-14.9,7-26c0-10-2.4-18-7.1-24.2s-11-9.3-18.9-9.3c-7.7,0-13.9,3.1-18.6,9.2
		C1306.8,529.2,1304.4,538,1304.4,549.3z"/>
	<path fill="#FFFFFF" d="M1387,547.5c0-8.9,1.8-16.9,5.2-24c3.5-7.1,8.4-12.6,14.6-16.5s13.4-5.8,21.4-5.8c12.4,0,22.4,4.3,30,12.9
		s11.5,20,11.5,34.2v1.1c0,8.9-1.7,16.8-5.1,23.8s-8.2,12.5-14.5,16.4s-13.5,5.9-21.7,5.9c-12.3,0-22.3-4.3-30-12.9
		s-11.5-19.9-11.5-34L1387,547.5L1387,547.5z M1402.6,549.3c0,10.1,2.3,18.2,7,24.3s10.9,9.2,18.8,9.2s14.2-3.1,18.8-9.3
		c4.6-6.2,7-14.9,7-26c0-10-2.4-18-7.1-24.2s-11-9.3-18.9-9.3c-7.7,0-13.9,3.1-18.6,9.2C1405,529.2,1402.6,538,1402.6,549.3z"/>
	<path fill="#FFFFFF" d="M1514.6,551.7l-9.7,10.2v31.9h-15.5V464.7h15.5v78.1l8.3-10l28.3-29.9h18.9l-35.4,38l39.5,52.9h-18.2
		L1514.6,551.7z"/>
</g>
<g>
	<path fill="#FFFFFF" d="M394,410.7c6.9,0,13.9,0.4,20.8,0.7c4.5,0.2,9,0.8,13.2,1.3l-0.3,41.6c-1.3,0-2.3,0-3.3,0
		c-4.6,0-9.1-0.1-13.7-0.1c-3.4,0-6.9,0-10.3,0.2c-11,0.4-19.2,4.5-19.7,18.3c-0.4,9.9-0.6,31.8-0.6,33c0.6,0,11.5,0,22.5,0
		c5.5,0,10.9,0,14.6,0c2.9,0,5.7,0,8.9,0c-2.2,16-4.3,31.4-6.5,46.8H380l-0.9,116.9h-48.5l0.9-117.1H292l0.4-46.5h39.8v-3.5
		c0.1-9.4,0-18.8,0.3-28.1c0.1-5.9,0.5-12,1.5-17.8c2.7-14.3,9.3-26.2,21.2-34.8c10.4-7.4,22.3-10.6,34.9-10.9
		C391.4,410.7,392.7,410.7,394,410.7z"/>
</g>
</svg>
