<?xml version="1.0" encoding="utf-8"?>
<!-- Generator: Adobe Illustrator 18.0.0, SVG Export Plug-In . SVG Version: 6.00 Build 0)  -->
<!DOCTYPE svg PUBLIC "-//W3C//DTD SVG 1.1//EN" "http://www.w3.org/Graphics/SVG/1.1/DTD/svg11.dtd">
<svg version="1.1" id="Layer_1" xmlns="http://www.w3.org/2000/svg" xmlns:xlink="http://www.w3.org/1999/xlink" x="0px" y="0px"
	 viewBox="0 270 1920 541.1" enable-background="new 0 270 1920 541.1" xml:space="preserve">
<path fill="#E14B33" d="M1902,811.1H20c-11,0-20-9-20-20v-500c0-11,9-20,20-20h1882c11,0,20,9,20,20v500
	C1922,802.1,1913,811.1,1902,811.1z"/>
<g>
	<path fill="#E14B33" d="M1651.1,808.9H268.9C121,808.9,0,687.9,0,540l0,0c0-147.9,121-268.9,268.9-268.9h1382.2
		c147.9,0,268.9,121,268.9,268.9l0,0C1920,687.9,1799,808.9,1651.1,808.9z"/>
	<rect x="584.9" y="271.1" fill="#C2412D" width="12.1" height="537.8"/>
	<g>
		<path fill="#FFFFFF" d="M922,577.7c-4.2,5.9-9.9,10.4-17.3,13.3c-7.4,2.9-16.1,4.4-25.9,4.4c-10,0-18.8-2.3-26.6-7
			s-13.7-11.3-17.9-20c-4.2-8.6-6.4-18.6-6.5-30v-10.7c0-18.4,4.3-32.7,12.9-42.9c8.6-10.1,20.7-15.2,36.3-15.2
			c12.8,0,23.1,3.3,30.8,9.8c7.8,6.5,12.5,15.8,14.3,27.8H906c-3-16.2-12.7-24.4-28.9-24.4c-10.8,0-19,3.8-24.6,11.4
			s-8.4,18.6-8.4,33v10c0,13.7,3.1,24.7,9.4,32.8c6.3,8.1,14.8,12.2,25.5,12.2c6.1,0,11.3-0.7,15.9-2s8.3-3.6,11.3-6.8V546h-28.3
			v-13.2H922V577.7L922,577.7z"/>
		<path fill="#FFFFFF" d="M942.3,547.5c0-8.9,1.7-16.9,5.2-24s8.4-12.6,14.6-16.5c6.2-3.9,13.4-5.8,21.4-5.8
			c12.4,0,22.4,4.3,30,12.9s11.5,20,11.5,34.2v1.1c0,8.9-1.7,16.8-5.1,23.8c-3.4,7-8.2,12.5-14.5,16.4s-13.6,5.9-21.7,5.9
			c-12.3,0-22.3-4.3-30-12.9c-7.6-8.6-11.5-19.9-11.5-34L942.3,547.5L942.3,547.5z M958,549.3c0,10.1,2.3,18.2,7,24.3
			s10.9,9.2,18.8,9.2c7.9,0,14.2-3.1,18.8-9.3s7-14.9,7-26c0-10-2.4-18-7.1-24.2c-4.7-6.2-11-9.3-18.9-9.3c-7.7,0-13.9,3.1-18.6,9.2
			C960.3,529.2,958,538,958,549.3z"/>
		<path fill="#FFFFFF" d="M1040.5,547.5c0-8.9,1.7-16.9,5.2-24s8.4-12.6,14.6-16.5s13.4-5.8,21.4-5.8c12.4,0,22.4,4.3,30,12.9
			s11.5,20,11.5,34.2v1.1c0,8.9-1.7,16.8-5.1,23.8s-8.2,12.5-14.5,16.4s-13.6,5.9-21.7,5.9c-12.3,0-22.3-4.3-30-12.9
			s-11.5-19.9-11.5-34L1040.5,547.5L1040.5,547.5z M1056.1,549.3c0,10.1,2.3,18.2,7,24.3s10.9,9.2,18.8,9.2s14.2-3.1,18.8-9.3
			c4.6-6.2,7-14.9,7-26c0-10-2.4-18-7.1-24.2s-11-9.3-18.9-9.3c-7.7,0-13.9,3.1-18.6,9.2C1058.5,529.2,1056.1,538,1056.1,549.3z"/>
		<path fill="#FFFFFF" d="M1139.1,547.6c0-14.2,3.3-25.4,9.8-33.8c6.6-8.4,15.2-12.6,26.1-12.6c11.1,0,19.7,3.9,26,11.8l0.8-10.1
			h14.2v88.7c0,11.8-3.5,21-10.5,27.8s-16.3,10.2-28.1,10.2c-6.6,0-13-1.4-19.2-4.2c-6.3-2.8-11.1-6.6-14.4-11.5l8.1-9.3
			c6.7,8.2,14.8,12.3,24.4,12.3c7.6,0,13.5-2.1,17.7-6.4c4.2-4.3,6.3-10.3,6.3-18v-7.8c-6.2,7.2-14.7,10.8-25.5,10.8
			c-10.6,0-19.3-4.3-25.8-12.9C1142.4,574,1139.1,562.4,1139.1,547.6z M1154.7,549.3c0,10.3,2.1,18.3,6.3,24.2s10.1,8.8,17.7,8.8
			c9.8,0,17-4.5,21.6-13.4v-41.5c-4.8-8.7-11.9-13-21.4-13c-7.6,0-13.5,2.9-17.7,8.8C1156.8,529.1,1154.7,537.8,1154.7,549.3z"/>
		<path fill="#FFFFFF" d="M1256.2,593.8h-15.5V464.7h15.5V593.8z"/>
		<path fill="#FFFFFF" d="M1318.8,595.5c-12.3,0-22.4-4-30.1-12.1s-11.6-18.9-11.6-32.5V548c0-9,1.7-17.1,5.2-24.2
			c3.4-7.1,8.3-12.6,14.5-16.6s12.9-6,20.1-6c11.8,0,21,3.9,27.6,11.7s9.8,18.9,9.8,33.4v6.5h-61.6c0.2,9,2.8,16.2,7.9,21.7
			s11.4,8.3,19.1,8.3c5.5,0,10.1-1.1,14-3.4c3.8-2.2,7.1-5.2,10-8.9l9.5,7.4C1345.5,589.6,1334.1,595.5,1318.8,595.5z M1316.9,513.9
			c-6.3,0-11.5,2.3-15.8,6.9s-6.9,11-7.9,19.2h45.5v-1.2c-0.5-7.9-2.6-14-6.4-18.4S1323.4,513.9,1316.9,513.9z"/>
	</g>
	<g>
		<g>
			<path fill="#FFFFFF" d="M292.4,444.4c16.2,0.2,31.3,4.2,45.2,12.4c9.3,5.3,14.6,10.8,16.9,12.4c-9.5,9.4-18.7,18.6-28.1,27.8
				c-6.9-6-14.6-11.5-27.9-13.5c-2.8-0.4-5.5-0.6-8.2-0.6c-26.7,0-49.1,19.3-55.1,44.6c-1.4,5.7-1.8,11.5-1.3,17.3
				c2,23.5,17.8,42.8,39.1,49.7c5.4,1.7,11,2.5,16.7,2.5c1.3,0,2.6,0,4-0.1c10-0.6,19.4-3.3,27.9-8.9c14.3-9.7,19-25,19-28.8
				c-2.7,0-48.8,0-51.2,0c0-1.3,0.2-25.2,0.3-36.9l0.1-1.6c30,0,59.9,0,89.9,0c4.8,28,0.5,57.6-17,80.6
				c-12.1,15.9-28.1,25.9-47.3,30.9c-8.5,2.2-17.1,3.3-25.8,3.3c-1.9,0-3.7-0.1-5.6-0.2c-18.7-1.1-35.8-7-50.9-18.1
				c-19.5-14.3-31.7-33.5-36.9-57.1c-1.9-8.6-2.5-17.1-1.8-25.7c1.4-20.4,8.5-38.7,21.6-54.6c13.6-16.6,30.8-27.5,51.5-32.7
				c5.2-1.4,10.5-2.2,15.8-2.5C286.4,444.6,289.4,444.4,292.4,444.4z"/>
		</g>
		<g>
			<polygon fill="#FFFFFF" points="463.2,488.7 463.2,489.6 463,522.1 495.3,522.1 496.3,522.1 496.3,523 496.2,547.2 496.1,548.2 
				495.1,548.2 462.8,548.2 462.5,580.6 462.5,581.5 461.6,581.5 437.3,581.5 436.4,581.5 436.4,580.6 436.7,548.2 404.3,548.2 
				403.3,548.2 403.3,547.2 403.5,523 403.5,522.1 404.5,522.1 436.9,522.1 437.1,489.6 437.1,488.7 438,488.7 462.3,488.7 			"/>
		</g>
	</g>
</g>
</svg>
